<svg xmlns="http://www.w3.org/2000/svg" xmlns:xlink="http://www.w3.org/1999/xlink" width="188" height="66" viewBox="0 0 188 66"><defs><clipPath id="a"><rect width="188" height="66" transform="translate(1488.981 5487.186)" fill="#fff" stroke="#707070" stroke-width="1"/></clipPath><clipPath id="b"><path d="M1047.657,1957.075v32.431a.711.711,0,0,0,.476.741l18.679-17.119-18.523-16.979a.866.866,0,0,0-.632.926" transform="translate(-1047.657 -1956.149)" fill="none"/></clipPath><linearGradient id="c" x1="-33.322" y1="8.651" x2="-33.291" y2="8.651" gradientUnits="objectBoundingBox"><stop offset="0" stop-color="#257cb0"/><stop offset="0.365" stop-color="#4e9eb5"/><stop offset="0.785" stop-color="#78c1ba"/><stop offset="1" stop-color="#89cfbd"/></linearGradient><clipPath id="d"><path d="M1048.693,1956.124l18.525,16.978,5.145-4.716-7.733-4.128-.121-.063,0,0-.013-.008h0l-.009,0-.015-.01-.008,0-.012-.007h0l-.019-.009-.006,0-14.709-7.85a1.641,1.641,0,0,0-.749-.2,1.056,1.056,0,0,0-.266.032" transform="translate(-1048.693 -1956.092)" fill="none"/></clipPath><linearGradient id="e" x1="-26.994" y1="17.343" x2="-26.968" y2="17.343" gradientUnits="objectBoundingBox"><stop offset="0" stop-color="#52c1ad"/><stop offset="0.132" stop-color="#65c6aa"/><stop offset="0.729" stop-color="#bbde9e"/><stop offset="1" stop-color="#dee89a"/></linearGradient><clipPath id="f"><path d="M1048.437,2003.419a1.1,1.1,0,0,0,.817-.126l.408-.22,14.829-7.912,0,0,.008,0h0l0,0,.011-.006.006,0,0,0h0l7.733-4.125-5.145-4.716Z" transform="translate(-1048.437 -1986.299)" fill="none"/></clipPath><linearGradient id="g" x1="-26.812" y1="16.175" x2="-26.786" y2="16.175" gradientUnits="objectBoundingBox"><stop offset="0" stop-color="#ec413d"/><stop offset="0.406" stop-color="#be4569"/><stop offset="0.796" stop-color="#98488e"/><stop offset="1" stop-color="#8a4a9d"/></linearGradient><clipPath id="h"><path d="M1079.1,1982.641l5.144,4.715h0l.014-.007,0,0,.018-.009h0l.112-.06.146-.079.02-.01.034-.018.05-.026.035-.019.031-.017.012-.006.007,0,.007,0,.017-.01.012-.006.007,0,.143-.076.015-.009.274-.146h0l1.362-.726h0l.427-.229.041-.022.032-.018.012-.006.1-.05,4.518-2.412c.822-.451.761-1.057.089-1.423l-.03-.016-.031-.016c-.736-.368-7.486-3.994-7.486-3.994Z" transform="translate(-1079.097 -1977.926)" fill="none"/></clipPath><linearGradient id="i" x1="-48.976" y1="29.978" x2="-48.931" y2="29.978" gradientUnits="objectBoundingBox"><stop offset="0" stop-color="#f58879"/><stop offset="1" stop-color="#fec874"/></linearGradient></defs><g transform="translate(-1488.981 -5487.186)" clip-path="url(#a)"><g transform="translate(1305.298 5494.763)"><path d="M4.431,0H167.065A4.273,4.273,0,0,1,171.5,4.1V47.752a4.273,4.273,0,0,1-4.431,4.1H4.431A4.273,4.273,0,0,1,0,47.752V4.1A4.273,4.273,0,0,1,4.431,0Z" transform="translate(0 0.519)"/><g transform="translate(12.864 11.079)"><g transform="translate(0)" clip-path="url(#b)"><rect width="19.156" height="34.097" transform="translate(0)" fill="url(#c)"/></g></g><g transform="translate(13.495 11.046)"><g transform="translate(0 0)" clip-path="url(#d)"><rect width="23.67" height="17.01" transform="translate(0)" fill="url(#e)"/></g></g><g transform="translate(13.339 28.057)"><g transform="translate(0)" clip-path="url(#f)"><rect width="23.825" height="17.189" transform="translate(0 0)" fill="url(#g)"/></g></g><g transform="translate(32.019 23.341)"><g transform="translate(0 0)" clip-path="url(#h)"><rect width="13.424" height="9.431" fill="url(#i)"/></g></g><path d="M1242.3,1990.275a5.14,5.14,0,0,1-1.971-.366,3.691,3.691,0,0,1-1.5-1.133h-.12a12.774,12.774,0,0,1,.12,1.7v4.2h-1.672v-14.8h1.36l.231,1.4h.081a3.818,3.818,0,0,1,1.5-1.211,4.877,4.877,0,0,1,1.965-.374,4.231,4.231,0,0,1,3.391,1.389,6.922,6.922,0,0,1-.018,7.8,4.243,4.243,0,0,1-3.374,1.392m-.242-9.269a3.087,3.087,0,0,0-2.448.867,4.213,4.213,0,0,0-.777,2.758v.343a4.809,4.809,0,0,0,.777,3.08,3.07,3.07,0,0,0,2.488.927,2.659,2.659,0,0,0,2.245-1.07,4.8,4.8,0,0,0,.811-2.956,4.615,4.615,0,0,0-.811-2.929,2.75,2.75,0,0,0-2.285-1.02" transform="translate(-1108.836 -1955.355)" fill="#f7f7f8"/><rect width="1.673" height="14.496" transform="translate(140.255 20.236)" fill="#f7f7f8"/><path d="M1270.386,1990.105l-.332-1.454h-.082a4.557,4.557,0,0,1-1.647,1.3,5.372,5.372,0,0,1-2.051.341,3.9,3.9,0,0,1-2.577-.783,2.747,2.747,0,0,1-.932-2.227q0-3.093,5.353-3.242l1.876-.055v-.635a2.46,2.46,0,0,0-.559-1.774,2.414,2.414,0,0,0-1.79-.573,7.8,7.8,0,0,0-3.125.78l-.515-1.181a8.568,8.568,0,0,1,3.74-.876,4.433,4.433,0,0,1,2.927.811,3.234,3.234,0,0,1,.954,2.6v6.97Zm-3.779-1.091a3.564,3.564,0,0,0,2.454-.792,2.814,2.814,0,0,0,.892-2.218v-.92l-1.673.064a6.513,6.513,0,0,0-2.877.574,1.7,1.7,0,0,0-.882,1.581,1.54,1.54,0,0,0,.549,1.276,2.412,2.412,0,0,0,1.538.437" transform="translate(-1118.841 -1955.371)" fill="#f7f7f8"/><path d="M1278.9,1980.022h1.794l2.417,5.823a21.312,21.312,0,0,1,.99,2.88h.08c.087-.317.271-.858.548-1.629s1.191-3.123,2.738-7.074h1.8l-4.75,11.627a5.763,5.763,0,0,1-1.649,2.447,3.679,3.679,0,0,1-2.311.721,7.383,7.383,0,0,1-1.514-.157v-1.24a6.292,6.292,0,0,0,1.241.111,2.535,2.535,0,0,0,2.461-1.788l.613-1.455Z" transform="translate(-1125.145 -1955.5)" fill="#f7f7f8"/><path d="M1189.2,1981.111a3.551,3.551,0,0,1,1.639,2.885c0,1.578-.97,2.327-1.94,3.032a1.474,1.474,0,0,0-.647,1.047,1.165,1.165,0,0,0,.6.918l.832.6c1.018.79,1.94,1.518,1.94,2.992,0,2.008-2.1,4.035-6.076,4.035-3.35,0-4.969-1.474-4.969-3.053a3.05,3.05,0,0,1,1.779-2.607,10.657,10.657,0,0,1,4.413-.983,2.162,2.162,0,0,1-.692-1.45,1.8,1.8,0,0,1,.23-.834c-.255.02-.509.043-.74.043a3.532,3.532,0,0,1-3.835-3.354,3.732,3.732,0,0,1,1.479-2.86,6.673,6.673,0,0,1,4.138-1.175h4.759l-1.479.769Zm-1.642,9.483a3.974,3.974,0,0,0-.531-.022,9.974,9.974,0,0,0-2.427.343c-.509.171-1.988.684-1.988,2.2s1.6,2.607,4.068,2.607c2.217,0,3.4-.985,3.4-2.309,0-1.091-.762-1.666-2.519-2.819m.671-4.057a2.055,2.055,0,0,0,.576-1.56c0-1.537-.994-3.929-2.91-3.929a2.233,2.233,0,0,0-1.618.706,2.334,2.334,0,0,0-.51,1.579c0,1.43.9,3.8,2.891,3.8a2.473,2.473,0,0,0,1.571-.6" transform="translate(-1086.726 -1955.64)" fill="#f7f7f8"/><path d="M1167.237,1990.018c-3.669,0-5.631-2.645-5.631-5.032,0-2.794,2.468-5.182,5.977-5.182a5.2,5.2,0,0,1,5.514,5.032c0,2.515-2.1,5.182-5.86,5.182m2.882-1.726a3.644,3.644,0,0,0,.693-2.367c0-1.878-.969-5.46-3.83-5.46a3.375,3.375,0,0,0-2.076.726,3.094,3.094,0,0,0-1.062,2.6c0,2.109,1.131,5.584,3.924,5.584a3.04,3.04,0,0,0,2.351-1.085" transform="translate(-1079.315 -1955.405)" fill="#f7f7f8"/><path d="M1146.712,1990.018c-3.668,0-5.629-2.645-5.629-5.032,0-2.794,2.469-5.182,5.977-5.182a5.2,5.2,0,0,1,5.512,5.032c0,2.515-2.1,5.182-5.859,5.182m2.885-1.726a3.657,3.657,0,0,0,.692-2.367c0-1.878-.969-5.46-3.831-5.46a3.383,3.383,0,0,0-2.077.726,3.1,3.1,0,0,0-1.061,2.6c0,2.109,1.131,5.584,3.923,5.584a3.044,3.044,0,0,0,2.353-1.085" transform="translate(-1071.296 -1955.405)" fill="#f7f7f8"/><path d="M1127.942,1985.94l-3.318.707a26.628,26.628,0,0,1-3.826.364c-6.4,0-8.836-4.352-8.836-7.762,0-4.159,3.454-8.017,9.37-8.017a14.35,14.35,0,0,1,3.549.451,9.323,9.323,0,0,1,3.062,1.329l-1.925,1.693-.812.169.581-.857a6.86,6.86,0,0,0-4.964-2.013,6.15,6.15,0,0,0-6.426,6.325,7.879,7.879,0,0,0,8.211,7.822,7.4,7.4,0,0,0,2.946-.535v-3.451l-3.5.172,1.855-.922h4.916l-.6.536a.489.489,0,0,0-.231.341c-.025.192-.047.817-.047,1.031Z" transform="translate(-1059.918 -1951.661)" fill="#f7f7f8"/><path d="M1203.6,1984.952c-.766-.066-.927-.193-.927-1.031v-12.133c.005-.047.007-.095.012-.138.093-.75.327-.88,1.046-1.266h-3.319l-1.74.772h1.773v.009l0-.007V1984.4c0,.427-.091.491-.625,1.134h4.1l.86-.471c-.395-.044-.789-.064-1.183-.107" transform="translate(-1093.797 -1951.29)" fill="#f7f7f8"/><path d="M1216.854,1989.269c-.253.127-.5.278-.757.383a5.753,5.753,0,0,1-2.237.405,5.228,5.228,0,0,1-3.063-.832,5.363,5.363,0,0,1-2.349-4.492,5.047,5.047,0,0,1,5.273-4.918,4.775,4.775,0,0,1,2.376.6,3.526,3.526,0,0,1,1.61,2.108l-5.411,2.023-1.774.129a4.968,4.968,0,0,0,4.746,4.277,6.278,6.278,0,0,0,2.808-.744Zm-2.164-6.345c.437-.152.669-.277.669-.576a2.228,2.228,0,0,0-2.282-1.83,2.71,2.71,0,0,0-2.648,2.957c0,.364.045.746.068,1.129Z" transform="translate(-1097.617 -1955.409)" fill="#f7f7f8"/><path d="M1225.454,1979.962v1.4h-.185v-1.4h-.5v-.146h1.192v.146Z" transform="translate(-1103.993 -1955.41)" fill="#f7f7f8"/><path d="M1228.484,1981.367v-1.418h-.008l-.468,1.418h-.146l-.471-1.418h-.007v1.418h-.167v-1.551h.288l.428,1.253h.005l.421-1.253h.291v1.551Z" transform="translate(-1104.951 -1955.41)" fill="#f7f7f8"/><path d="M1116.592,1960.457h-1.152a6.708,6.708,0,0,0-.329-1.246h-1.664a6.08,6.08,0,0,0-.339,1.246h-1.084a22.21,22.21,0,0,1,.841-2.131,15.792,15.792,0,0,0,.842-2.2h1.361a17.136,17.136,0,0,0,.76,2.172,18.071,18.071,0,0,1,.764,2.164m-1.664-1.881a17.692,17.692,0,0,1-.616-1.857h-.058a18.662,18.662,0,0,1-.637,1.857Z" transform="translate(-1059.943 -1945.058)" fill="#f9f9fa"/><path d="M1124.665,1960.455h-.89a8.1,8.1,0,0,0-.991-1.441,7.783,7.783,0,0,1-1.181-1.88h-.057a11.026,11.026,0,0,1,.089,1.318q0,.823.051,2h-.886q.055-1.029.054-2.265c0-.811-.017-1.5-.054-2.069h1.069a6.125,6.125,0,0,0,.889,1.408,8.041,8.041,0,0,1,1.088,1.775h.055a11.474,11.474,0,0,1-.087-1.333c0-.6-.017-1.217-.05-1.851h.9q-.05.825-.05,2.069t.05,2.265" transform="translate(-1063.372 -1945.058)" fill="#f9f9fa"/><path d="M1133.17,1958.123a2.351,2.351,0,0,1-.655,1.653,2.388,2.388,0,0,1-1.838.705q-.531,0-1.469-.04.048-1.006.047-2.267,0-1.213-.047-2.068h.631c.1,0,.257,0,.461-.011s.337-.009.4-.009a2.544,2.544,0,0,1,1.885.6,1.983,1.983,0,0,1,.585,1.436m-.982.144a1.536,1.536,0,0,0-.4-1.076,1.6,1.6,0,0,0-1.232-.437,3.926,3.926,0,0,0-.425.029q.037.667.036,1.392c0,.529.013,1.056.037,1.577a2.631,2.631,0,0,0,.467.044,1.421,1.421,0,0,0,1.148-.446,1.635,1.635,0,0,0,.373-1.084" transform="translate(-1066.657 -1945.044)" fill="#f9f9fa"/><path d="M1141.178,1960.442h-1.065a6.345,6.345,0,0,0-.641-1.454.869.869,0,0,0-.721-.277c-.139,0-.273,0-.4,0,0,.571.011,1.145.034,1.728h-1q.049-1.006.048-2.267,0-1.213-.048-2.068h.625c.071,0,.221,0,.451-.011s.44-.009.635-.009q1.655,0,1.655,1.046a1.19,1.19,0,0,1-.945,1.154v.049a1.113,1.113,0,0,1,.637.524,10.955,10.955,0,0,1,.738,1.581m-1.351-3.063q0-.661-.922-.661a3.482,3.482,0,0,0-.6.045c.026.346.04.792.04,1.345.131,0,.244.008.333.008.766,0,1.146-.246,1.146-.737" transform="translate(-1069.85 -1945.044)" fill="#f9f9fa"/><path d="M1149.144,1958.131a2.3,2.3,0,0,1-2.35,2.368,2.2,2.2,0,0,1-1.594-.616,2.094,2.094,0,0,1-.641-1.57,2.308,2.308,0,0,1,2.353-2.367,2.206,2.206,0,0,1,1.592.615,2.092,2.092,0,0,1,.64,1.571m-.993.1a1.635,1.635,0,0,0-.387-1.13,1.224,1.224,0,0,0-.95-.433,1.128,1.128,0,0,0-.892.437,1.655,1.655,0,0,0-.369,1.1,1.63,1.63,0,0,0,.387,1.127,1.225,1.225,0,0,0,.95.434,1.12,1.12,0,0,0,.893-.438,1.65,1.65,0,0,0,.368-1.1" transform="translate(-1072.654 -1944.981)" fill="#f9f9fa"/><path d="M1154.774,1960.455h-1.019q.047-1.029.047-2.265c0-.811-.015-1.5-.047-2.069h1.019q-.047.838-.047,2.069,0,1.254.047,2.265" transform="translate(-1076.247 -1945.058)" fill="#f9f9fa"/><path d="M1161.454,1958.123a2.358,2.358,0,0,1-.655,1.653,2.385,2.385,0,0,1-1.837.705q-.533,0-1.47-.04.046-1.006.048-2.267,0-1.213-.048-2.068h.63c.1,0,.256,0,.461-.011s.337-.009.4-.009a2.539,2.539,0,0,1,1.885.6,1.981,1.981,0,0,1,.585,1.436m-.982.144a1.534,1.534,0,0,0-.4-1.076,1.6,1.6,0,0,0-1.233-.437,3.966,3.966,0,0,0-.424.029c.024.444.037.909.037,1.392,0,.529.012,1.056.035,1.577a2.645,2.645,0,0,0,.469.044,1.416,1.416,0,0,0,1.147-.446,1.625,1.625,0,0,0,.373-1.084" transform="translate(-1077.708 -1945.044)" fill="#f9f9fa"/><path d="M1172.435,1960.457h-1.153a6.7,6.7,0,0,0-.328-1.246h-1.664a6.051,6.051,0,0,0-.339,1.246h-1.084a22.068,22.068,0,0,1,.84-2.131,15.826,15.826,0,0,0,.844-2.2h1.36a17.488,17.488,0,0,0,.761,2.172,17.932,17.932,0,0,1,.762,2.164m-1.665-1.881a18.26,18.26,0,0,1-.615-1.857h-.057a19.207,19.207,0,0,1-.636,1.857Z" transform="translate(-1081.762 -1945.058)" fill="#f9f9fa"/><path d="M1180.066,1957.243a1.272,1.272,0,0,1-.639,1.176,3.046,3.046,0,0,1-1.57.378,2.245,2.245,0,0,1-.24-.008q0,.627.038,1.653h-1.013q.048-.964.049-2.267c0-.8-.017-1.488-.049-2.068h.629c.088,0,.259,0,.51-.011s.471-.009.656-.009a2.184,2.184,0,0,1,1.156.286.949.949,0,0,1,.472.87m-.929.182q0-.713-1.023-.712a3.007,3.007,0,0,0-.54.049c.026.421.04.9.04,1.426.058,0,.129.006.207.006q1.317,0,1.315-.769" transform="translate(-1085.19 -1945.044)" fill="#f9f9fa"/><path d="M1187.154,1957.243a1.273,1.273,0,0,1-.638,1.176,3.051,3.051,0,0,1-1.57.378,2.264,2.264,0,0,1-.241-.008q0,.627.039,1.653h-1.013q.049-.964.048-2.267c0-.8-.016-1.488-.048-2.068h.628c.088,0,.26,0,.511-.011s.47-.009.656-.009a2.194,2.194,0,0,1,1.158.286.95.95,0,0,1,.47.87m-.928.182q0-.713-1.023-.712a3.008,3.008,0,0,0-.54.049c.026.421.039.9.039,1.426.06,0,.13.006.209.006q1.315,0,1.314-.769" transform="translate(-1087.961 -1945.044)" fill="#f9f9fa"/><path d="M1198,1958.131a2.3,2.3,0,0,1-2.351,2.368,2.2,2.2,0,0,1-1.592-.616,2.084,2.084,0,0,1-.642-1.57,2.308,2.308,0,0,1,2.353-2.367,2.2,2.2,0,0,1,1.591.615,2.089,2.089,0,0,1,.64,1.571m-.993.1a1.636,1.636,0,0,0-.386-1.13,1.226,1.226,0,0,0-.95-.433,1.128,1.128,0,0,0-.893.437,1.648,1.648,0,0,0-.368,1.1,1.631,1.631,0,0,0,.387,1.127,1.222,1.222,0,0,0,.95.434,1.12,1.12,0,0,0,.893-.438,1.655,1.655,0,0,0,.368-1.1" transform="translate(-1091.743 -1944.981)" fill="#f9f9fa"/><path d="M1206.474,1960.455h-.889a8.145,8.145,0,0,0-.991-1.441,7.772,7.772,0,0,1-1.181-1.88h-.058a10.894,10.894,0,0,1,.09,1.318q0,.823.051,2h-.887c.038-.686.054-1.441.054-2.265s-.017-1.5-.054-2.069h1.07a6.127,6.127,0,0,0,.889,1.408,8.1,8.1,0,0,1,1.088,1.775h.054a11.434,11.434,0,0,1-.086-1.333c0-.6-.018-1.217-.051-1.851h.9q-.05.825-.05,2.069t.05,2.265" transform="translate(-1095.336 -1945.058)" fill="#f9f9fa"/><rect width="174.926" height="52.885" rx="1" transform="translate(192.779 0)"/><path d="M1396.089,1984.431a25.651,25.651,0,0,1-2.561,4.42c-1.665,2.339-4.009,5.254-6.913,5.278-2.583.023-3.244-1.551-6.749-1.535s-4.235,1.564-6.818,1.542c-2.9-.025-5.126-2.656-6.791-5-4.652-6.544-5.137-14.226-2.269-18.309a10.464,10.464,0,0,1,8.28-4.6c3.078,0,5.016,1.561,7.561,1.561,2.469,0,3.974-1.564,7.534-1.564a10.326,10.326,0,0,1,7.574,3.7c-6.655,3.372-5.575,12.161,1.151,14.509" transform="translate(-1157.693 -1949.473)" fill="#fff"/><path d="M1395.106,1956.992a7.575,7.575,0,0,0,1.919-5.915,9.58,9.58,0,0,0-6.027,2.994,7.06,7.06,0,0,0-1.971,5.772,8.109,8.109,0,0,0,6.079-2.851" transform="translate(-1168.137 -1942.854)" fill="#fff"/><path d="M1436.8,1974.224l-6.663,18.129h3.051l1.99-5.567h6.453l2.045,5.567h3.137l-6.693-18.129Zm1.582,2.98c.225.809.469,1.651.78,2.558l1.8,4.807h-5.111l1.77-4.838c.269-.785.526-1.632.765-2.527" transform="translate(-1184.236 -1952.967)" fill="#fff"/><path d="M1466.819,1982.571a5.724,5.724,0,0,0-4.719,2.092l-.119-1.8h-2.714l.016.23c.081,1.123.114,2.358.114,4.135V2001.2h2.967v-6.521a5.415,5.415,0,0,0,4.059,1.611,6.378,6.378,0,0,0,4.5-1.767,7.158,7.158,0,0,0,1.986-5.276,6.963,6.963,0,0,0-1.725-4.819,5.849,5.849,0,0,0-4.361-1.856m-.74,2.27c2.647,0,3.83,2.264,3.83,4.509,0,2.9-1.511,4.7-3.944,4.7a3.558,3.558,0,0,1-3.5-2.547,3.281,3.281,0,0,1-.1-.888v-2.206a3.736,3.736,0,0,1,.095-.676c.015-.075.03-.149.043-.223a3.7,3.7,0,0,1,3.577-2.665" transform="translate(-1195.617 -1956.614)" fill="#fff"/><path d="M1491.9,1982.571a5.73,5.73,0,0,0-4.72,2.092l-.118-1.8h-2.714l.015.23c.083,1.127.117,2.358.117,4.135V2001.2h2.967v-6.521a5.413,5.413,0,0,0,4.056,1.611,6.381,6.381,0,0,0,4.5-1.767,7.16,7.16,0,0,0,1.985-5.276,6.956,6.956,0,0,0-1.725-4.819,5.846,5.846,0,0,0-4.36-1.856m-.739,2.27c2.645,0,3.829,2.264,3.829,4.509,0,2.9-1.512,4.7-3.942,4.7a3.553,3.553,0,0,1-3.5-2.547,3.229,3.229,0,0,1-.105-.888v-2.206a3.629,3.629,0,0,1,.1-.678c.015-.075.029-.147.042-.221a3.705,3.705,0,0,1,3.577-2.665" transform="translate(-1205.417 -1956.614)" fill="#fff"/><path d="M1523.636,1981.682c-2.768-.992-3.656-1.772-3.656-3.211,0-1.213,1.042-2.436,3.373-2.436a7.169,7.169,0,0,1,3.484.807l.25.145.839-2.289-.167-.089a9.147,9.147,0,0,0-4.32-.9c-3.786,0-6.429,2.066-6.429,5.02,0,2.383,1.656,4.05,5.21,5.244,2.519.869,3.454,1.763,3.454,3.29,0,1.729-1.446,2.8-3.771,2.8a8.629,8.629,0,0,1-4.279-1.123l-.254-.151-.8,2.341.145.089a10.821,10.821,0,0,0,5.015,1.193c5.1,0,6.911-2.876,6.911-5.337,0-2.536-1.449-4.1-5.008-5.4" transform="translate(-1218.007 -1952.743)" fill="#fff"/><path d="M1541.92,1977.536l-2.91.844v2.28h-2.131v2.192h2.131v6.714a4.857,4.857,0,0,0,1.027,3.479,3.972,3.972,0,0,0,2.872,1.044,7.527,7.527,0,0,0,2.294-.329l.166-.054-.141-2.2-.286.083a4.925,4.925,0,0,1-1.381.146c-1.15,0-1.642-.673-1.642-2.252v-6.635h3.582v-2.192h-3.582Z" transform="translate(-1225.941 -1954.414)" fill="#fff"/><path d="M1558.579,1982.57a6.706,6.706,0,0,0-7.054,6.963,6.5,6.5,0,0,0,6.826,6.755h.027c3.4,0,7.053-2.188,7.053-6.992a6.625,6.625,0,0,0-1.892-4.849,6.879,6.879,0,0,0-4.96-1.877m-.086,2.166c2.67,0,3.885,2.405,3.885,4.642,0,2.75-1.661,4.745-3.943,4.745h-.029c-2.25,0-3.885-1.962-3.885-4.667,0-2.349,1.228-4.721,3.972-4.721" transform="translate(-1231.663 -1956.614)" fill="#fff"/><path d="M1584.529,1982.7l-.178-.042a3.125,3.125,0,0,0-.738-.084,4.271,4.271,0,0,0-3.72,2.208l-.087-1.919h-2.664l.016.23c.08,1.087.112,2.306.112,3.951l-.027,8.961h2.966v-6.99a6.4,6.4,0,0,1,.084-1.064,3.185,3.185,0,0,1,3.122-2.763c.3,0,.542.023.8.045l.316.031Z" transform="translate(-1241.673 -1956.614)" fill="#fff"/><path d="M1595.914,1982.523c-3.95,0-6.708,2.92-6.708,7.1,0,4.021,2.744,6.622,6.994,6.622a12.2,12.2,0,0,0,4.7-.832l.178-.075-.571-2.045-.247.092a9.861,9.861,0,0,1-3.717.615c-1.29,0-4.263-.391-4.447-3.976l9.579.027.039-.175a5.614,5.614,0,0,0,.09-1.144c0-2.863-1.542-6.2-5.889-6.2m-.2,2.086a3.067,3.067,0,0,1,2.18.77,3.722,3.722,0,0,1,1.022,2.551h-6.768a3.646,3.646,0,0,1,3.567-3.321" transform="translate(-1246.386 -1956.593)" fill="#fff"/><path d="M1430.139,1952.095a23.176,23.176,0,0,1,2.847-.178,6.722,6.722,0,0,1,4.178,1.057,3.643,3.643,0,0,1,1.469,3.094,4.192,4.192,0,0,1-1.485,3.335,7.293,7.293,0,0,1-4.577,1.234,22.189,22.189,0,0,1-2.432-.1Zm1.347,7.6a10.4,10.4,0,0,0,1.347.051c2.848.012,4.392-1.324,4.392-3.64.016-2.05-1.363-3.31-4.178-3.31a9.243,9.243,0,0,0-1.562.113Z" transform="translate(-1184.236 -1943.221)" fill="#fff"/><path d="M1449.638,1962.516c-1.99,0-3.55-1.222-3.55-3.169,0-2.062,1.638-3.27,3.673-3.27,2.127,0,3.565,1.283,3.565,3.156,0,2.29-1.912,3.283-3.672,3.283Zm.046-.841a2.263,2.263,0,0,0,2.25-2.406,2.247,2.247,0,1,0-2.266,2.406Z" transform="translate(-1190.467 -1945.039)" fill="#fff"/><path d="M1460.583,1956.323l1,3.119c.2.686.4,1.335.536,1.972h.047c.167-.623.413-1.286.656-1.96l1.209-3.132h1.133l1.15,3.08c.274.726.487,1.389.656,2.012h.045a16.2,16.2,0,0,1,.567-2l1.057-3.092h1.332l-2.389,6.16h-1.223l-1.132-2.939a18.926,18.926,0,0,1-.659-2.038h-.03a15.64,15.64,0,0,1-.674,2.049l-1.193,2.928h-1.224l-2.236-6.16Z" transform="translate(-1195.593 -1945.147)" fill="#fff"/><path d="M1479.036,1957.884c0-.651-.016-1.16-.06-1.669h1.192l.078,1.006h.031a2.869,2.869,0,0,1,2.446-1.145,2.444,2.444,0,0,1,2.618,2.621v3.68H1484v-3.553a1.606,1.606,0,0,0-1.716-1.831,1.923,1.923,0,0,0-1.806,1.144,1.436,1.436,0,0,0-.091.522v3.718h-1.348Z" transform="translate(-1203.317 -1945.038)" fill="#fff"/><rect width="1.347" height="9.039" transform="translate(284.215 8.3)" fill="#fff"/><path d="M1501.57,1962.516c-1.989,0-3.55-1.222-3.55-3.169,0-2.062,1.636-3.27,3.674-3.27,2.125,0,3.564,1.283,3.564,3.156,0,2.29-1.913,3.283-3.674,3.283Zm.044-.841a2.262,2.262,0,0,0,2.251-2.406,2.247,2.247,0,1,0-2.264,2.406Z" transform="translate(-1210.758 -1945.039)" fill="#fff"/><path d="M1517.535,1960.9a8.671,8.671,0,0,0,.107,1.476h-1.209l-.123-.777h-.046a2.95,2.95,0,0,1-2.265.916c-1.5,0-2.263-.878-2.263-1.769,0-1.49,1.59-2.3,4.452-2.291v-.127c0-.51-.168-1.437-1.684-1.426a4.107,4.107,0,0,0-1.943.456l-.307-.75a5.577,5.577,0,0,1,2.449-.534c2.28,0,2.831,1.283,2.831,2.519Zm-1.315-1.669c-1.469-.026-3.138.192-3.138,1.388,0,.737.58,1.067,1.255,1.067a1.884,1.884,0,0,0,1.823-1.03.952.952,0,0,0,.061-.357Z" transform="translate(-1216.117 -1945.039)" fill="#fff"/><path d="M1530.853,1951.215v7.445c0,.547.017,1.171.061,1.593h-1.208l-.061-1.07h-.031a2.833,2.833,0,0,1-2.511,1.209,3.052,3.052,0,0,1-3.183-3.131,3.191,3.191,0,0,1,3.322-3.31,2.626,2.626,0,0,1,2.234.929h.031v-3.665Zm-1.347,5.384a1.721,1.721,0,0,0-.063-.484,1.931,1.931,0,0,0-1.942-1.285,2.174,2.174,0,0,0-2.219,2.367,2.109,2.109,0,0,0,2.189,2.291,1.991,1.991,0,0,0,1.973-1.336,1.612,1.612,0,0,0,.063-.484Z" transform="translate(-1220.878 -1942.916)" fill="#fff"/><path d="M1546.964,1962.516c-1.989,0-3.551-1.222-3.551-3.169,0-2.062,1.638-3.27,3.675-3.27,2.127,0,3.564,1.283,3.564,3.156,0,2.29-1.912,3.283-3.673,3.283Zm.047-.841a2.261,2.261,0,0,0,2.25-2.406,2.247,2.247,0,1,0-2.265,2.406Z" transform="translate(-1228.494 -1945.039)" fill="#fff"/><path d="M1558.047,1957.884c0-.651-.016-1.16-.063-1.669h1.194l.078,1.006h.03a2.873,2.873,0,0,1,2.45-1.145,2.444,2.444,0,0,1,2.617,2.621v3.68h-1.347v-3.553a1.605,1.605,0,0,0-1.714-1.831,1.925,1.925,0,0,0-1.808,1.144,1.442,1.442,0,0,0-.091.522v3.718h-1.346Z" transform="translate(-1234.187 -1945.038)" fill="#fff"/><path d="M1578.435,1953.7v1.474h1.929v.853h-1.929v3.325c0,.762.262,1.2,1.011,1.2a2.989,2.989,0,0,0,.781-.077l.061.853a4.28,4.28,0,0,1-1.195.153,1.767,1.767,0,0,1-1.973-2.088v-3.361h-1.149v-.853h1.149v-1.131Z" transform="translate(-1241.215 -1944.001)" fill="#fff"/><path d="M1585.668,1951.215h1.346v3.844h.031a2.218,2.218,0,0,1,.965-.789,3.013,3.013,0,0,1,1.377-.319,2.443,2.443,0,0,1,2.588,2.636v3.666h-1.348v-3.54a1.6,1.6,0,0,0-1.714-1.833,1.942,1.942,0,0,0-1.807,1.121,1.127,1.127,0,0,0-.091.534v3.718h-1.346Z" transform="translate(-1245.004 -1942.916)" fill="#fff"/><path d="M1600.031,1959.476c.031,1.515,1.18,2.139,2.525,2.139a6.052,6.052,0,0,0,2.053-.305l.246.787a7.044,7.044,0,0,1-2.482.4c-2.265,0-3.642-1.26-3.642-3.1a3.26,3.26,0,0,1,3.489-3.337,2.789,2.789,0,0,1,3.045,2.9,2.429,2.429,0,0,1-.046.536Zm3.934-.8a1.707,1.707,0,0,0-1.852-1.82,2.027,2.027,0,0,0-2.068,1.82Z" transform="translate(-1250.109 -1945.028)" fill="#fff"/></g></g></svg>