<svg xmlns="http://www.w3.org/2000/svg" width="27.862" height="27.861" viewBox="0 0 27.862 27.861"><g transform="translate(-10.189 -10.669)"><g transform="translate(10.19 10.67)"><path d="M2560.717,681.659c3.721,0,4.161.014,5.63.081a7.718,7.718,0,0,1,2.586.48,4.614,4.614,0,0,1,2.645,2.644,7.738,7.738,0,0,1,.479,2.587c.067,1.469.081,1.909.081,5.629s-.014,4.16-.081,5.629a7.74,7.74,0,0,1-.479,2.587,4.616,4.616,0,0,1-2.645,2.644,7.713,7.713,0,0,1-2.586.48c-1.469.066-1.909.081-5.63.081s-4.16-.015-5.629-.081a7.715,7.715,0,0,1-2.587-.48,4.626,4.626,0,0,1-2.644-2.644,7.733,7.733,0,0,1-.48-2.587c-.066-1.469-.08-1.91-.08-5.629s.014-4.161.08-5.629a7.731,7.731,0,0,1,.48-2.587,4.624,4.624,0,0,1,2.644-2.644,7.719,7.719,0,0,1,2.587-.48c1.469-.067,1.909-.081,5.629-.081m0-2.51c-3.783,0-4.257.016-5.742.084a10.23,10.23,0,0,0-3.383.647,7.116,7.116,0,0,0-4.073,4.074,10.181,10.181,0,0,0-.647,3.381c-.069,1.486-.085,1.96-.085,5.744s.016,4.257.085,5.743a10.183,10.183,0,0,0,.647,3.381,7.116,7.116,0,0,0,4.073,4.074,10.23,10.23,0,0,0,3.383.647c1.485.068,1.959.084,5.742.084s4.259-.016,5.744-.084a10.212,10.212,0,0,0,3.381-.647,7.114,7.114,0,0,0,4.074-4.074,10.183,10.183,0,0,0,.647-3.381c.069-1.486.085-1.96.085-5.743s-.016-4.258-.085-5.744a10.181,10.181,0,0,0-.647-3.381,7.114,7.114,0,0,0-4.074-4.074,10.212,10.212,0,0,0-3.381-.647c-1.485-.068-1.96-.084-5.744-.084" transform="translate(-2546.786 -679.149)" fill="#31485f"/><path d="M2744.485,869.695a7.153,7.153,0,1,0,7.153,7.154,7.153,7.153,0,0,0-7.153-7.154m0,11.8a4.644,4.644,0,1,1,4.646-4.644,4.644,4.644,0,0,1-4.646,4.644" transform="translate(-2730.554 -862.917)" fill="#31485f"/><path d="M3103.86,816.394a1.671,1.671,0,1,1-1.672-1.673,1.672,1.672,0,0,1,1.672,1.673" transform="translate(-3080.821 -809.899)" fill="#31485f"/></g></g></svg>