<svg xmlns="http://www.w3.org/2000/svg" width="27.074" height="22.003" viewBox="0 0 27.074 22.003"><g transform="translate(-12.357 -14.279)"><path d="M2607.747,2655.38a15.8,15.8,0,0,0,24.3-14.028,11.278,11.278,0,0,0,2.771-2.875,11.082,11.082,0,0,1-3.191.874,5.565,5.565,0,0,0,2.443-3.072,11.18,11.18,0,0,1-3.527,1.35,5.557,5.557,0,0,0-9.465,5.065,15.766,15.766,0,0,1-11.449-5.8,5.56,5.56,0,0,0,1.72,7.416,5.512,5.512,0,0,1-2.518-.694,5.561,5.561,0,0,0,4.455,5.518,5.576,5.576,0,0,1-2.507.095,5.555,5.555,0,0,0,5.188,3.856A11.158,11.158,0,0,1,2607.747,2655.38Z" transform="translate(-2595.39 -2621.594)" fill="#31485f"/></g></svg>