<svg xmlns="http://www.w3.org/2000/svg" width="20.989" height="25.146" viewBox="0 0 20.989 25.146"><path d="M2.681,17.121q0-1.312.146-3.94a3.1,3.1,0,0,1,3.04-2.991q2.432-.122,7.32-.122t7.321.122a3.1,3.1,0,0,1,3.04,2.991q.12,2.189.122,3.94t-.122,3.941a3.1,3.1,0,0,1-3.04,2.991q-2.433.121-7.321.122t-7.32-.122a3.1,3.1,0,0,1-3.039-2.992Q2.68,18.435,2.681,17.121ZM4.31,13.693H5.794v7.929H7.229V13.693H8.712V12.355H4.31ZM5.891-.972H7.35l.924,3.7h.1l.876-3.7h1.459l-1.119,3.6Q9.028,4.4,9.028,4.451V8.294H7.593V4.622A4.044,4.044,0,0,0,7.46,4c-.056-.186-.13-.4-.219-.644s-.158-.446-.207-.608ZM8.712,20.551q0,1.167.876,1.167a1.965,1.965,0,0,0,1.483-.851v.754h1.265V14.787H11.071v5.2q-.511.511-.754.511c-.226,0-.34-.154-.34-.462V14.788H8.712ZM10.633,6.567V3.016a1.577,1.577,0,0,1,.535-1.277,2.042,2.042,0,0,1,1.362-.45,1.782,1.782,0,0,1,1.3.486,1.717,1.717,0,0,1,.5,1.289V6.591a1.882,1.882,0,0,1-.486,1.374,1.817,1.817,0,0,1-1.362.5,1.776,1.776,0,0,1-1.35-.523A1.912,1.912,0,0,1,10.633,6.567Zm1.313.17q0,.559.535.559.559,0,.559-.608V2.968A.46.46,0,0,0,12.87,2.6a.579.579,0,0,0-.389-.146.566.566,0,0,0-.377.134.438.438,0,0,0-.158.353V6.737Zm1.629,14.884h1.289v-.511a1.5,1.5,0,0,0,1.217.609q1.142,0,1.143-1.508V16.417q0-1.726-1.241-1.726a1.435,1.435,0,0,0-1.119.656V12.355H13.576v9.266Zm1.289-1.289v-4.28a.772.772,0,0,1,.535-.268q.535,0,.535.681v3.6q0,.584-.462.584A.782.782,0,0,1,14.865,20.332Zm.559-13.108V1.46h1.265V6.689q0,.462.34.462.316,0,.754-.511V1.46h1.265V8.294H17.783V7.54a1.967,1.967,0,0,1-1.484.851Q15.425,8.391,15.424,7.224ZM18.2,19.7a2.408,2.408,0,0,0,.462,1.52,1.646,1.646,0,0,0,1.386.6q1.9,0,1.9-2.116v-.511H20.629c0,.033,0,.142.012.328a1.934,1.934,0,0,1-.012.4c-.016.081-.037.191-.061.329a.428.428,0,0,1-.159.291.583.583,0,0,1-.34.085q-.56,0-.559-.973V18.363h2.431V16.611a2.2,2.2,0,0,0-.45-1.459,1.694,1.694,0,0,0-1.374-.534,1.822,1.822,0,0,0-1.4.559,2.02,2.02,0,0,0-.523,1.435V19.7Zm1.313-2.408v-.73q0-.754.559-.754t.559.754v.73Z" transform="translate(-2.681 0.972)" fill="#31485f"/></svg>